<?xml version="1.0" standalone="no"?>
<svg xmlns:xlink="http://www.w3.org/1999/xlink" id="wave" style="transform:rotate(180deg); transition: 0.3s" viewBox="0 0 1440 490" version="1.1" xmlns="http://www.w3.org/2000/svg"><defs><linearGradient id="sw-gradient-0" x1="0" x2="0" y1="1" y2="0"><stop stop-color="rgba(243, 106, 62, 1)" offset="0%"/><stop stop-color="rgba(255, 179, 11, 1)" offset="100%"/></linearGradient></defs><path style="transform:translate(0, 0px); opacity:1" fill="url(#sw-gradient-0)" d="M0,196L20,163.3C40,131,80,65,120,65.3C160,65,200,131,240,187.8C280,245,320,294,360,285.8C400,278,440,212,480,171.5C520,131,560,114,600,163.3C640,212,680,327,720,334.8C760,343,800,245,840,236.8C880,229,920,310,960,343C1000,376,1040,359,1080,302.2C1120,245,1160,147,1200,138.8C1240,131,1280,212,1320,220.5C1360,229,1400,163,1440,179.7C1480,196,1520,294,1560,318.5C1600,343,1640,294,1680,302.2C1720,310,1760,376,1800,383.8C1840,392,1880,343,1920,294C1960,245,2000,196,2040,196C2080,196,2120,245,2160,220.5C2200,196,2240,98,2280,114.3C2320,131,2360,261,2400,269.5C2440,278,2480,163,2520,122.5C2560,82,2600,114,2640,122.5C2680,131,2720,114,2760,106.2C2800,98,2840,98,2860,98L2880,98L2880,490L2860,490C2840,490,2800,490,2760,490C2720,490,2680,490,2640,490C2600,490,2560,490,2520,490C2480,490,2440,490,2400,490C2360,490,2320,490,2280,490C2240,490,2200,490,2160,490C2120,490,2080,490,2040,490C2000,490,1960,490,1920,490C1880,490,1840,490,1800,490C1760,490,1720,490,1680,490C1640,490,1600,490,1560,490C1520,490,1480,490,1440,490C1400,490,1360,490,1320,490C1280,490,1240,490,1200,490C1160,490,1120,490,1080,490C1040,490,1000,490,960,490C920,490,880,490,840,490C800,490,760,490,720,490C680,490,640,490,600,490C560,490,520,490,480,490C440,490,400,490,360,490C320,490,280,490,240,490C200,490,160,490,120,490C80,490,40,490,20,490L0,490Z"/></svg>